<?xml version="1.0" standalone="yes"?>
<svg xmlns="http://www.w3.org/2000/svg" width="500" height="500">
<path style="fill:#993333; stroke:none;" d="M0 0L0 500L500 500L500 0L259 0L259 1C271.609 5.37991 278.433 28.2076 287.174 38C299.042 51.2975 313.271 62.3141 323.562 77C340.136 100.653 344.489 131.464 335.975 159C331.84 172.372 324.851 183.483 319 196L318 196C318.652 164.42 325.027 128.945 308.123 100C302.353 90.1189 292.446 83.4034 281 82.1736C277.884 81.8388 271.303 80.8636 269.603 84.3179C264.961 93.7526 269 114.454 269 125L269 217C269 231.57 271.5 248.799 268.101 263C263.941 280.381 249.482 295.166 232 299.324C191.456 308.967 159.165 261.557 181.548 227C195.921 204.81 218.549 205 242 205L242 156C220.236 156 200.297 155.722 180 164.865C168.895 169.868 159.505 177.399 151.004 186C114.225 223.21 117.036 286.925 154.039 322.91C170.401 338.822 191.684 346.938 214 349.169C225.239 350.293 237.12 349.338 248 345.975C262.492 341.494 275.481 334.512 286.985 324.561C299.79 313.484 308.757 297.925 313.999 282C321.96 257.815 319 230.124 319 205L346 205C346 235.379 349.007 267.05 337.935 296C331.332 313.265 321.051 328.01 308 340.999C296.185 352.758 282.393 361.795 267 368.139C253.383 373.751 237.709 376.999 223 377C123.41 377.006 61.6425 261.152 121.155 180C132.903 163.981 148.377 150.935 166 141.784C189.613 129.522 215.944 128 242 128L242 34C242 22.0807 239.009 7.07526 252 1L229 0L178 0L0 0z"/>
<path style="fill:#46ad9c; stroke:none;" d="M252 0L253 1L252 0z"/>
<path style="fill:#1fa2bf; stroke:none;" d="M268 104L269 104L269 82C275.838 82 282.46 81.7335 289 84.0903C303.257 89.2276 311.777 104.042 315.37 118C321.882 143.294 319 168.331 319 194C345.981 165.278 345.643 113.098 326.547 81C316.595 64.272 301.333 51.9256 288.039 38C279.259 28.8024 270.037 0.710052 256 0.267761C241.11 -0.201416 241.586 17.657 242.039 28C242.439 37.1379 241.128 49.2383 243.498 58C247.655 73.3639 259.977 90.2544 268 104z"/>
<path style="fill:#46ad9c; stroke:none;" d="M258 0L259 1L258 0M249 1L250 2L249 1M263 2L264 3L263 2M264 3L265 4L264 3M266 6L267 7L266 6M242 10L242 13L243 13L242 10M269 11L270 12L269 11M271 14L272 15L271 14M274 19L275 20L274 19M279 27L280 28L279 27M281 30L282 31L281 30M242 32L242 128L183 134L183 135C187.144 137.35 198.28 153.56 196 158L196 159L242 156L242 205L224 205L244.139 243L263 277C274.104 257.469 269 228.744 269 207L269 138C269 127.832 271.161 114.83 268.502 105C263.947 88.1647 249.536 74.4641 243.815 58C240.961 49.788 245.35 39.9825 242 32M284 34L285 35L284 34M317 68L318 69L317 68M323 76L324 77L323 76M325 79L326 80L325 79M269 82L270 83L269 82M283 82L284 83L283 82M287 83L288 84L287 83M290 84L291 85L290 84M328 84L329 85L328 84M292 85L293 86L292 85M329 86L330 87L329 86M296 87L297 88L296 87M330 88L331 89L330 88M331 90L332 91L331 90M332 92L333 93L332 92M306 97L307 98L306 97M334 97L335 98L334 97M335 100L336 101L335 100M309 102L310 103L309 102M336 103L337 104L336 103M310 104L311 105L310 104M311 106L312 107L311 106M313 111L314 112L313 111M338 111L339 112L338 111M314 114L315 115L314 114M339.333 117.667L339.667 118.333L339.333 117.667M315 118L316 119L315 118M316 122L317 123L316 122M317.333 127.667L317.667 128.333L317.333 127.667M318 133L318 136L319 136L318 133M180 135L181 136L180 135z"/>
<path style="fill:#68ba7f; stroke:none;" d="M128 224L129 224C136.764 191.313 167.84 168.203 198 158C195.673 152.599 190.279 137.945 184.61 135.644C179.238 133.462 168.698 140.167 164 142.522C145.819 151.634 118.993 171.089 113.427 192C111.086 200.791 124.625 215.936 128 224z"/>
<path style="fill:#46ad9c; stroke:none;" d="M175 137L176 138L175 137M170 139L171 140L170 139M168 140L169 141L168 140M339.333 141.667L339.667 142.333L339.333 141.667M164 142L165 143L164 142M319 144L319 149L320 149L319 144M155 147L156 148L155 147M338 148L339 149L338 148M337 153L338 154L337 153M336 157L337 158L336 157M193.667 159.333L194.333 159.667L193.667 159.333M335 160L336 161L335 160M188 161L189 162L188 161M183 163L184 164L183 163M334 163L335 164L334 163M333 166L334 167L333 166M173 168L174 169L173 168M332 169L333 170L332 169M331 171L332 172L331 171M319 174L319 182L320 182L319 174M330 174L331 175L330 174M329 176L330 177L329 176M328 178L329 179L328 178M327 180L328 181L327 180M326 182L327 183L326 182M325 184L326 185L325 184M324 186L325 187L324 186M323 187L324 188L323 187z"/>
<path style="fill:#92bf57; stroke:none;" d="M114 189L115 190L114 189z"/>
<path style="fill:#46ad9c; stroke:none;" d="M318 189L318 196L319 196L318 189M322 189L323 190L322 189z"/>
<path style="fill:#92bf57; stroke:none;" d="M113 191L114 192L113 191z"/>
<path style="fill:#46ad9c; stroke:none;" d="M321 191L322 192L321 191M320 192L321 193L320 192z"/>
<path style="fill:#92bf57; stroke:none;" d="M112 194C67.3111 270.566 126.524 373.244 214 377L214 376C207.307 372.202 197.506 353.71 197 346C159.213 342.179 128.568 298.113 125.17 263C123.917 250.059 129.525 236.193 128.038 224C126.983 215.355 117.516 200.657 112 194z"/>
<path style="fill:#46ad9c; stroke:none;" d="M213 205L213 206L216 206L213 205z"/>
<path style="fill:#68ba7f; stroke:none;" d="M216 205.428C196.034 208.252 179.01 221.654 174.669 242C168.211 272.269 193.754 305.189 226 300.572C237.205 298.967 261.527 290.345 261.551 276C261.558 271.925 258.07 267.484 256.22 264C251.398 254.923 246.207 246.036 241.309 237C236.052 227.303 229.042 203.584 216 205.428z"/>
<path style="fill:#46ad9c; stroke:none;" d="M319 205C319 228.27 321.343 253.28 315.522 276C312.49 287.832 307.05 299.079 299.96 309C297.01 313.128 289.393 318.598 289.288 324C289.145 331.309 298.182 341.232 301 348C340.281 320.33 346 272.8 346 229L345 229L345 244C339.661 234.852 334.666 225.383 329.745 216C327.095 210.948 325.214 205.494 319 205z"/>
<path style="fill:#1fa2bf; stroke:none;" d="M324 205L344 244L345 244L346 205L324 205z"/>
<path style="fill:#46ad9c; stroke:none;" d="M209 206L210 207L209 206M203 208L204 209L203 208z"/>
<path style="fill:#92bf57; stroke:none;" d="M130 218L131 219L130 218M129 221L130 222L129 221z"/>
<path style="fill:#46ad9c; stroke:none;" d="M345 227L346 228L345 227M261 278L262 279L261 278M259 281L260 282L259 281M249 291L250 292L249 291M244 294L245 295L244 294M242 295L243 296L242 295M235 298L236 299L235 298z"/>
<path style="fill:#68ba7f; stroke:none;" d="M196 347C199.127 354.508 205.332 371.323 212.376 375.657C218.517 379.436 231.34 377.02 238 375.92C262.229 371.916 281.479 362.71 301 348L289 324C280.423 327.817 273.563 335.03 265 339.11C241.41 350.352 221.06 348.98 196 347z"/>
<path style="fill:#46ad9c; stroke:none;" d="M285 325L286 326L285 325M284 326L285 327L284 326M283 327L284 328L283 327M280 329L281 330L280 329M276 332L277 333L276 332M268 337L269 338L268 337M264 339L265 340L264 339z"/>
<path style="fill:#68ba7f; stroke:none;" d="M195 346L196 347L195 346z"/>
<path style="fill:#92bf57; stroke:none;" d="M200 347L201 348L200 347M206 348L207 349L206 348z"/>
<path style="fill:#46ad9c; stroke:none;" d="M298 349L299 350L298 349M297 350L298 351L297 350M296 351L297 352L296 351M292 354L293 355L292 354M289 356L290 357L289 356M286 358L287 359L286 358M279 362L280 363L279 362M273 365L274 366L273 365z"/>
<path style="fill:#92bf57; stroke:none;" d="M216 376L217 377L216 376M83 413L83 401L82.9992 393C82.97 388.764 78.8706 379.448 74.0278 386.434C70.2792 391.842 71.1249 418.32 77.1335 421.682C85.1863 426.189 92.156 415.892 83 413M386.054 384.762C379.919 385.78 381.76 394.622 387.957 393.833C394.205 393.037 392.21 383.74 386.054 384.762M41 410C57.506 410 57.5163 399.002 41 399C45.3623 394.545 56.9936 398.804 59.392 393.682C64.2255 383.361 35.4485 383.371 32.0278 389.148C29.2008 393.923 29.0063 415.969 32.179 420.566C38.7335 430.064 41 413.644 41 410z"/>
<path style="fill:#993333; stroke:none;" d="M86 421L86 415C78.5215 412.638 81.013 401.329 81 395C80.9952 392.67 81.6955 387.703 78.7407 386.752C74.4599 385.374 75.0045 392.795 75 395C74.977 406.176 71.116 420.947 86 421z"/>
<path style="fill:#92bf57; stroke:none;" d="M264 405C271.691 413.797 274.981 415.146 283 406C283 408.664 282.944 411.336 283.015 414C283.168 419.761 289.59 427.703 293.258 418.941C297.008 409.984 295.49 374.371 280.464 392.015C277.93 394.991 275.649 398.115 273 401C271.023 396.323 260.748 379.933 255.028 389.229C251.678 394.673 253.02 411.74 254.228 417.956C255.099 422.436 261.176 424.687 263.397 419.772C265.201 415.777 264 409.319 264 405z"/>
<path style="fill:#993333; stroke:none;" d="M385.589 387.086C382.925 388.986 385.466 394.015 388.411 391.914C391.075 390.014 388.534 384.985 385.589 387.086M40 408C54.7059 408 54.7059 401 40 401L40 395C47.389 395 57.6798 397.751 58 388C52.4895 388 39.025 385.526 34.6034 389.028C30.9972 391.884 31.6008 414.626 33.6034 418.681C36.5679 424.684 39.9374 417.014 39.9954 414.004C40.0339 412.004 40 410 40 408M263 400L264 400C269.847 413.9 277.706 412.653 284 400C285.082 403.659 284.998 407.193 285 411C285.001 413.423 287.494 426.583 291.397 418.681C294.195 413.015 292.114 401.273 291.995 395.001C291.955 392.864 292.15 389.595 289.683 388.662C281.855 385.701 279.872 402.826 273.051 400.793C267.876 399.251 264.927 386.136 258.314 388.662C255.851 389.603 256.045 392.861 256.005 395.001C255.92 399.498 253.487 418.419 258.299 420.338C265.173 423.08 263 403.463 263 400z"/>
<path style="fill:#92bf57; stroke:none;" d="M108.999 396.588C99.2357 399.135 96.413 411.871 103.225 418.786C107.487 423.113 116.213 423.721 121.956 422.466C127.839 421.181 127.77 402.484 124.972 398.319C123.017 395.409 112.224 395.747 108.999 396.588M151 406L153 406C154.018 410.275 152.91 415.851 154.742 419.772C156.224 422.942 160.902 423.764 162.972 420.681C165.293 417.225 164.233 410.133 165 406L167 406C167.898 409.773 167.257 427.102 175.682 421.953C180.807 418.82 178.626 401.957 174.721 398.514C169.996 394.347 156.216 396.599 150 396.581C147.505 396.574 144.596 395.557 142.318 397.032C138.406 399.566 138.538 416.959 141.028 420.566C144.371 425.411 149.546 421.437 149.941 416.995C150.278 413.223 150.113 409.725 151 406M213 414C224.132 404.455 211.827 392.6 200.015 396.703C186.411 401.428 190.152 422.162 204 422.957C209.142 423.252 222.536 419.634 213 414M309.318 397.032C306.091 399.11 306.929 404.736 307.015 408C307.301 418.98 321.178 428.751 331.566 421.816C336.306 418.652 336.388 394.828 328.043 396.377C321.499 397.591 326.428 412.468 320.09 411.369C314.774 410.447 319.256 390.632 309.318 397.032M352 413C340.12 416.607 354.194 423.863 360.999 422.786C374.997 420.572 367.797 405.95 357 405C359.335 404.492 361.595 404.952 363.893 404.515C367.936 403.747 368.13 399.153 364.848 397.179C357.472 392.742 344.578 398.297 348.448 407.975C349.246 409.97 350.631 411.395 352 413M384.318 397.032C379.259 400.29 380.202 427.902 389.682 421.957C394.789 418.754 393.791 390.932 384.318 397.032M415 396.653C396.92 402.294 407.69 428.991 423.956 421.991C438.501 415.731 416.485 411.256 416.485 409.414C416.485 405.551 424.436 407.847 426.677 405.664C433.689 398.833 419.903 395.123 415 396.653z"/>
<path style="fill:#993333; stroke:none;" d="M215 420L214 415C208.051 415.751 204.796 416.055 200 412C203.7 411.119 212.405 412.479 214.82 409.397C221.797 400.493 205.2 395.437 199.019 399.09C191.312 403.642 191.382 415.272 199.044 419.91C204.19 423.026 209.678 421.687 215 420M361 413C358.253 417.433 354.267 415.152 350 414L348 419C353.657 421.077 375.505 420.81 365.397 409.513C363.069 406.912 358.176 406.184 355 405L355 403C359.435 402.134 364.315 404.062 366 399C349.669 394.421 343.147 410.582 361 413M118 418C127.357 432.451 127.357 386.549 118 401C97.5089 386.263 96.6037 432.108 118 418M142 398L142 421L148 421L148.004 414.995C148.022 413.694 147.941 412.283 148.228 411.005C151.852 394.89 157.18 420.879 159.83 420.534C166.363 419.683 159.579 405.485 166.576 405.485C171.935 405.485 168.166 425.348 175.401 419.953C183.015 414.276 173.422 389.057 162 402L161 402C156.748 396.896 152.704 398.022 148 402L148 398L142 398M309 398C309 409.112 310.515 428.277 326 417L326 421C335.448 420.264 332 405.092 332 398L326 398C326 401.511 325.212 418.865 317.514 412.377C313.867 409.304 315 402.209 315 398L309 398M384 398L384 421L390 421L390 398L384 398M414.004 398.858C398.771 405.111 411.899 428.253 424.677 419.543C432.28 414.362 414.121 414.477 414.917 409.032C415.772 403.193 422.496 407.085 425.377 404.369C431.201 398.879 416.983 397.635 414.004 398.858z"/>
<path style="fill:#92bf57; stroke:none;" d="M200 409C214.886 408.947 203.802 398.428 200 409M112.043 405.086C106.365 406.227 108.097 414.754 113.896 413.508C119.482 412.307 117.466 403.997 112.043 405.086z"/>
<path style="fill:#993333; stroke:none;" d="M202 406L202 407L208 407L208 405L202 406M111.458 407.172C108.698 408.647 110.841 413.141 113.708 411.745C116.641 410.315 114.332 405.637 111.458 407.172M203 413L203 414L211 414L203 413M356 414L356 415L359 415L356 414z"/>
<path style="fill:#1fa2bf; stroke:none;" d="M180 475L180 464C180 461.668 180.039 459.332 179.995 457C179.934 453.755 176.97 445.539 173.028 451.323C169.747 456.136 170.316 478.554 176.228 481.257C181.966 483.88 186.745 477.24 180 475M132.603 452.028C129.29 454.652 129.237 479.718 133.299 481.338C134.601 481.858 136.088 481.453 136.978 480.392C138.608 478.448 137.974 475.591 140.318 474.028C143.52 471.891 147.652 473.216 150.891 470.566C163.995 459.849 142.983 443.807 132.603 452.028z"/>
<path style="fill:#993333; stroke:none;" d="M138 459L138 466C148.253 465.907 148.288 459.036 138 459z"/>
<path style="fill:#1fa2bf; stroke:none;" d="M240 461C240.804 465.508 242.923 469.066 245.196 473C247.793 477.497 244.249 488.925 247.318 490.762C251.419 493.217 253.946 486.68 255.219 484C257.903 478.351 263.073 470.348 263.462 464.055C264.139 453.128 254.154 467.188 253 470C249.166 464.723 247.416 458.072 240 461M289 473C292.513 473 298.678 474.137 301.396 471.397C306.392 466.358 298.904 459.788 294 459.254C282.348 457.985 275.708 474.584 286.105 480.86C289.474 482.894 294.272 483.23 297.941 481.851C300.308 480.961 302.753 477.983 299.663 476.117C296.076 473.951 292.55 476.312 289 473M337 460C323.517 458.178 316.356 463.516 320.318 477.941C321.004 480.439 323.828 482.832 326.397 480.953C330.026 478.299 326.426 471.825 329.603 468.603C333.539 464.611 336.768 467.06 337 460M207.015 460.743C190.632 467.147 206.855 487.485 220.581 481.346C224.397 479.64 224.294 464.521 221.972 461.604C219.734 458.793 210.023 459.567 207.015 460.743z"/>
<path style="fill:#993333; stroke:none;" d="M289 469L295 469L295 466L289 469M210.303 468.175C206.963 469.817 209.247 474.742 212.697 473.338C216.115 471.947 213.569 466.57 210.303 468.175z"/>
</svg>
